#Comment line ignore any data following # character 
#Hierarchical Translation and Rotation (.htr) file 
[Header]	
#Header keywords are followed by a single value 
FileType HTR		#Single word string
DataType HTRS		#Translation followed by rotation and scale data
FileVersion 1		#integer
NumSegments 64		#integer
NumFrames 3		#integer
DataFrameRate 30		#integer, data frame rate in this file
EulerRotationOrder ZYX
CalibrationUnits mm
RotationUnits Degrees
GlobalAxisofGravity Y
BoneLengthAxis Y
ScaleFactor 1.00
[SegmentNames&Hierarchy]
#CHILD	PARENT
Pinger_Root GLOBAL
Pelvis Pinger_Root
L_Hip Pelvis
R_Hip Pelvis
Rear_Leg01 Pelvis
Spine1 Pelvis
L_Leg01 L_Hip
L_Leg02 L_Leg01
L_Leg03 L_Leg02
L_Foot L_Leg03
L_Toe1_01 L_Foot
L_Toe2_01 L_Foot
L_Toe3_01 L_Foot
planeAlignerLeft L_Foot
L_Toe1_02 L_Toe1_01
L_Toe1_03 L_Toe1_02
L_Toe2_02 L_Toe2_01
L_Toe2_03 L_Toe2_02
L_Toe3_02 L_Toe3_01
L_Toe3_03 L_Toe3_02
planeLockWeightLeft planeAlignerLeft
R_Leg01 R_Hip
R_Leg02 R_Leg01
R_Leg03 R_Leg02
R_Foot R_Leg03
planeAlignerRight R_Foot
R_Toe1_01 R_Foot
R_Toe2_01 R_Foot
R_Toe3_01 R_Foot
planeLockWeightRight planeAlignerRight
R_Toe1_02 R_Toe1_01
R_Toe1_03 R_Toe1_02
R_Toe2_02 R_Toe2_01
R_Toe2_03 R_Toe2_02
R_Toe3_02 R_Toe3_01
R_Toe3_03 R_Toe3_02
Rear_Leg02 Rear_Leg01
Rear_Leg03 Rear_Leg02
Rear_Leg04 Rear_Leg03
Rear_Foot Rear_Leg04
planeAlignerCenter Rear_Foot
Rear_Toe1_01 Rear_Foot
Rear_Toe2_01 Rear_Foot
Rear_Toe3_01 Rear_Foot
planeLockWeightCenter planeAlignerCenter
Rear_Toe1_02 Rear_Toe1_01
Rear_Toe1_03 Rear_Toe1_02
Rear_Toe2_02 Rear_Toe2_01
Rear_Toe2_03 Rear_Toe2_02
Rear_Toe3_02 Rear_Toe3_01
Rear_Toe3_03 Rear_Toe3_02
Back_Bone Spine1
Head Spine1
Motor_Bone Back_Bone
Ping_Mechanism Back_Bone
BN_LookIK Head
bottomMouth Head
L_Mouth01 Head
L_mouthFront Head
mouthGun Head
R_Mouth01 Head
R_mouthFront Head
TopMouth Head
weapon_bone Head
[BasePosition]
#SegmentName Tx, Ty, Tz, Rx, Ry, Rz, BoneLength
Pinger_Root 0.000000 0.000000 0.000000 -90.000000 0.000000 0.000000 10.000000 
Pelvis 0.000000 0.000000 0.000000 0.000000 0.000000 0.000000 10.000000 
L_Hip 0.000000 0.000000 0.000000 0.000000 0.000000 0.000000 10.000000 
R_Hip 0.000000 0.000000 0.000000 0.000000 0.000000 0.000000 10.000000 
Rear_Leg01 0.000000 0.000000 0.000000 0.000000 0.000000 0.000000 10.000000 
Spine1 0.000000 0.000000 0.000000 0.000000 0.000000 0.000000 10.000000 
L_Leg01 0.000000 0.000000 0.000000 0.000000 0.000000 0.000000 10.000000 
L_Leg02 0.000000 0.000000 0.000000 0.000000 0.000000 0.000000 10.000000 
L_Leg03 0.000000 0.000000 0.000000 0.000000 0.000000 0.000000 10.000000 
L_Foot 0.000000 0.000000 0.000000 0.000000 0.000000 0.000000 10.000000 
L_Toe1_01 0.000000 0.000000 0.000000 0.000000 0.000000 0.000000 10.000000 
L_Toe2_01 0.000000 0.000000 0.000000 0.000000 0.000000 0.000000 10.000000 
L_Toe3_01 0.000000 0.000000 0.000000 0.000000 0.000000 0.000000 10.000000 
planeAlignerLeft 0.000000 0.000000 0.000000 0.000000 0.000000 0.000000 10.000000 
L_Toe1_02 0.000000 0.000000 0.000000 0.000000 0.000000 0.000000 10.000000 
L_Toe1_03 0.000000 0.000000 0.000000 0.000000 0.000000 0.000000 10.000000 
L_Toe2_02 0.000000 0.000000 0.000000 0.000000 0.000000 0.000000 10.000000 
L_Toe2_03 0.000000 0.000000 0.000000 0.000000 0.000000 0.000000 10.000000 
L_Toe3_02 0.000000 0.000000 0.000000 0.000000 0.000000 0.000000 10.000000 
L_Toe3_03 0.000000 0.000000 0.000000 0.000000 0.000000 0.000000 10.000000 
planeLockWeightLeft 0.000000 0.000000 0.000000 0.000000 0.000000 0.000000 10.000000 
R_Leg01 0.000000 0.000000 0.000000 0.000000 0.000000 0.000000 10.000000 
R_Leg02 0.000000 0.000000 0.000000 0.000000 0.000000 0.000000 10.000000 
R_Leg03 0.000000 0.000000 0.000000 0.000000 0.000000 0.000000 10.000000 
R_Foot 0.000000 0.000000 0.000000 0.000000 0.000000 0.000000 10.000000 
planeAlignerRight 0.000000 0.000000 0.000000 0.000000 0.000000 0.000000 10.000000 
R_Toe1_01 0.000000 0.000000 0.000000 0.000000 0.000000 0.000000 10.000000 
R_Toe2_01 0.000000 0.000000 0.000000 0.000000 0.000000 0.000000 10.000000 
R_Toe3_01 0.000000 0.000000 0.000000 0.000000 0.000000 0.000000 10.000000 
planeLockWeightRight 0.000000 0.000000 0.000000 0.000000 0.000000 0.000000 10.000000 
R_Toe1_02 0.000000 0.000000 0.000000 0.000000 0.000000 0.000000 10.000000 
R_Toe1_03 0.000000 0.000000 0.000000 0.000000 0.000000 0.000000 10.000000 
R_Toe2_02 0.000000 0.000000 0.000000 0.000000 0.000000 0.000000 10.000000 
R_Toe2_03 0.000000 0.000000 0.000000 0.000000 0.000000 0.000000 10.000000 
R_Toe3_02 0.000000 0.000000 0.000000 0.000000 0.000000 0.000000 10.000000 
R_Toe3_03 0.000000 0.000000 0.000000 0.000000 0.000000 0.000000 10.000000 
Rear_Leg02 0.000000 0.000000 0.000000 0.000000 0.000000 0.000000 10.000000 
Rear_Leg03 0.000000 0.000000 0.000000 0.000000 0.000000 0.000000 10.000000 
Rear_Leg04 0.000000 0.000000 0.000000 0.000000 0.000000 0.000000 10.000000 
Rear_Foot 0.000000 0.000000 0.000000 0.000000 0.000000 0.000000 10.000000 
planeAlignerCenter 0.000000 0.000000 0.000000 0.000000 0.000000 0.000000 10.000000 
Rear_Toe1_01 0.000000 0.000000 0.000000 0.000000 0.000000 0.000000 10.000000 
Rear_Toe2_01 0.000000 0.000000 0.000000 0.000000 0.000000 0.000000 10.000000 
Rear_Toe3_01 0.000000 0.000000 0.000000 0.000000 0.000000 0.000000 10.000000 
planeLockWeightCenter 0.000000 0.000000 0.000000 0.000000 0.000000 0.000000 10.000000 
Rear_Toe1_02 0.000000 0.000000 0.000000 0.000000 0.000000 0.000000 10.000000 
Rear_Toe1_03 0.000000 0.000000 0.000000 0.000000 0.000000 0.000000 10.000000 
Rear_Toe2_02 0.000000 0.000000 0.000000 0.000000 0.000000 0.000000 10.000000 
Rear_Toe2_03 0.000000 0.000000 0.000000 0.000000 0.000000 0.000000 10.000000 
Rear_Toe3_02 0.000000 0.000000 0.000000 0.000000 0.000000 0.000000 10.000000 
Rear_Toe3_03 0.000000 0.000000 0.000000 0.000000 0.000000 0.000000 10.000000 
Back_Bone 0.000000 0.000000 0.000000 0.000000 0.000000 0.000000 10.000000 
Head 0.000000 0.000000 0.000000 0.000000 0.000000 0.000000 10.000000 
Motor_Bone 0.000000 0.000000 0.000000 0.000000 0.000000 0.000000 10.000000 
Ping_Mechanism 0.000000 0.000000 0.000000 0.000000 0.000000 0.000000 10.000000 
BN_LookIK 0.000000 0.000000 0.000000 0.000000 0.000000 0.000000 10.000000 
bottomMouth 0.000000 0.000000 0.000000 0.000000 0.000000 0.000000 10.000000 
L_Mouth01 0.000000 0.000000 0.000000 0.000000 0.000000 0.000000 10.000000 
L_mouthFront 0.000000 0.000000 0.000000 0.000000 0.000000 0.000000 10.000000 
mouthGun 0.000000 0.000000 0.000000 0.000000 0.000000 0.000000 10.000000 
R_Mouth01 0.000000 0.000000 0.000000 0.000000 0.000000 0.000000 10.000000 
R_mouthFront 0.000000 0.000000 0.000000 0.000000 0.000000 0.000000 10.000000 
TopMouth 0.000000 0.000000 0.000000 0.000000 0.000000 0.000000 10.000000 
weapon_bone 0.000000 0.000000 0.000000 0.000000 0.000000 0.000000 10.000000 
#Beginning of Data. Separated by tabs
#Fr	Tx	Ty	Tz	Rx	Ry	Rz	SF
[Pinger_Root]
105 0.000000 0.000000 0.000000 -0.000075 -0.000000 -0.000020 0.000000
106 0.000000 0.000000 0.000000 -0.000075 -0.000000 -0.000020 0.000000
107 0.000000 0.000000 0.000000 -0.000075 -0.000000 -0.000020 0.000000
[Pelvis]
105 15.219026 995.954895 3662.832031 -90.580917 -84.088852 89.988495 3795.852539
106 19.677376 992.691284 3670.742432 -90.893898 -84.717285 90.037315 3802.653564
107 24.820471 988.906372 3681.008545 -91.605194 -85.606796 90.376640 3811.610596
[L_Hip]
105 5.766392 125.831482 872.656799 -134.518280 -74.702629 43.056244 881.701050
106 5.766392 125.831482 872.656799 -141.092636 -74.604515 49.855610 881.701050
107 5.766392 125.831482 872.656799 -148.462448 -74.246284 57.525677 881.701050
[R_Hip]
105 5.765438 125.836372 -872.654907 -51.310795 74.084831 36.101948 881.699829
106 5.765438 125.836372 -872.654907 -44.986980 74.753593 42.158054 881.699829
107 5.765438 125.836372 -872.654907 -37.078197 75.266830 49.779064 881.699829
[Rear_Leg01]
105 -192.298416 -925.602966 -0.001907 175.961761 -1.371789 -125.790054 945.367432
106 -192.298416 -925.602966 -0.001907 175.826569 -1.148664 -126.201309 945.367432
107 -192.298416 -925.602966 -0.001907 175.600433 -0.849984 -126.812996 945.367432
[Spine1]
105 290.604584 5.007505 0.000477 0.565239 -0.044581 17.358419 290.647736
106 290.604584 5.007505 0.000477 0.817208 -0.067547 17.983747 290.647736
107 290.604584 5.007505 0.000477 1.156618 -0.094838 18.828606 290.647736
[L_Leg01]
105 761.932007 -0.002384 -0.069261 68.671127 -38.168274 -68.602386 761.932068
106 761.932007 -0.002384 -0.069261 66.409401 -38.069454 -65.706581 761.932068
107 761.932007 -0.002384 -0.069261 63.823391 -37.807899 -62.340927 761.932068
[L_Leg02]
105 1441.140503 -0.000954 -0.000715 4.006444 0.462067 -115.767708 1441.140503
106 1441.140503 -0.000954 -0.000715 4.135109 0.498102 -118.367958 1441.140503
107 1441.140503 -0.000954 -0.000715 4.265870 0.509629 -121.209061 1441.140503
[L_Leg03]
105 1686.963989 -0.000715 -0.000954 -0.074524 0.039876 130.128189 1686.963989
106 1686.963989 -0.000715 -0.000954 -0.075384 0.039529 130.235107 1686.963989
107 1686.963989 -0.000715 -0.000954 -0.076244 0.039184 130.342026 1686.963989
[L_Foot]
105 3041.570068 -30.715107 11.297464 2.165063 23.735443 41.459560 3041.746094
106 3041.570068 -30.715107 11.297464 2.319564 23.217920 42.725269 3041.746094
107 3041.570068 -30.715107 11.297464 2.461041 22.697382 43.984604 3041.746094
[L_Toe1_01]
105 -188.216690 -224.732346 -21.137953 93.492859 -11.293324 -173.688644 293.899567
106 -188.216690 -224.732346 -21.137953 93.410820 -11.090174 -173.126373 293.899567
107 -188.216690 -224.732346 -21.137953 93.442955 -10.837486 -173.082703 293.899567
[L_Toe2_01]
105 200.746536 -219.926590 148.838394 -89.938904 -33.720657 -47.979408 332.896027
106 200.746536 -219.926590 148.838394 -90.037933 -33.462669 -48.022793 332.896027
107 200.746536 -219.926590 148.838394 -90.030411 -33.042610 -48.292377 332.896027
[L_Toe3_01]
105 188.832520 -219.859131 -191.078659 -96.900787 10.779230 -57.743450 347.140900
106 188.832520 -219.859131 -191.078659 -96.992416 10.933409 -58.164082 347.140900
107 188.832520 -219.859131 -191.078659 -97.085236 11.086923 -58.585178 347.140900
[planeAlignerLeft]
105 0.812531 -811.448792 -0.314951 0.000000 -90.000000 -90.001900 811.449280
106 0.812531 -811.448792 -0.314951 0.000000 -90.000000 -90.001900 811.449280
107 0.812531 -811.448792 -0.314951 0.000000 -90.000000 -90.001900 811.449280
[L_Toe1_02]
105 413.761139 0.000477 0.000000 0.000203 -25.410625 -0.000182 413.761139
106 413.761139 0.000477 0.000000 0.000203 -25.410625 -0.000182 413.761139
107 413.761139 0.000477 0.000000 0.000203 -25.410625 -0.000182 413.761139
[L_Toe1_03]
105 464.317322 0.000358 -0.000089 0.002847 41.311729 0.002847 464.317322
106 464.317322 0.000358 -0.000089 0.002745 39.378193 0.002745 464.317322
107 464.317322 0.000358 -0.000089 0.002799 40.411934 0.002799 464.317322
[L_Toe2_02]
105 342.235809 -0.000477 0.000238 0.001185 -74.350960 0.001185 342.235809
106 342.235809 -0.000477 0.000238 0.001184 -74.686478 0.001184 342.235809
107 342.235809 -0.000477 0.000238 0.001184 -74.570999 0.001184 342.235809
[L_Toe2_03]
105 420.210846 -0.000715 0.000000 -179.919815 89.195457 -179.916321 420.210846
106 420.210846 -0.000715 0.000000 -179.966232 88.145012 -179.962738 420.210846
107 420.210846 -0.000715 0.000000 -179.959839 88.428535 -179.956329 420.210846
[L_Toe3_02]
105 329.270111 0.000954 0.000000 0.004676 -83.932793 0.004677 329.270111
106 329.270111 0.000954 0.000000 -0.003911 -83.851395 0.012390 329.270111
107 329.270111 0.000954 0.000000 -0.012286 -83.770050 0.019889 329.270111
[L_Toe3_03]
105 439.137451 -0.001907 0.000954 179.991943 59.249493 179.999207 439.137451
106 439.137451 -0.001907 0.000954 179.991959 59.141476 179.999222 439.137451
107 439.137451 -0.001907 0.000954 179.991837 60.084171 179.999084 439.137451
[planeLockWeightLeft]
105 -0.000954 0.000238 -0.000305 -0.011826 -0.004376 0.005620 0.001029
106 -0.000954 0.000238 -0.000305 -0.011826 -0.004376 0.005620 0.001029
107 -0.000954 0.000238 -0.000305 -0.011826 -0.004376 0.005620 0.001029
[R_Leg01]
105 761.455627 -0.001907 -0.000358 97.695496 -26.801643 75.003311 761.455688
106 761.455627 -0.001907 -0.000358 98.258591 -26.432508 73.312241 761.455688
107 761.455627 -0.001907 -0.000358 98.920372 -25.939589 71.365654 761.455688
[R_Leg02]
105 1441.140625 0.000000 -0.000238 -1.190858 -0.506415 -135.866226 1441.140625
106 1441.140625 0.000000 -0.000238 -1.231074 -0.527881 -137.114456 1441.140625
107 1441.140625 0.000000 -0.000238 -1.290658 -0.552641 -138.450760 1441.140625
[R_Leg03]
105 1686.963989 0.000954 0.001431 0.115881 -0.071114 141.264023 1686.963989
106 1686.963989 0.000954 0.001431 0.115838 -0.071184 141.333221 1686.963989
107 1686.963989 0.000954 0.001431 0.115795 -0.071254 141.402405 1686.963989
[R_Foot]
105 3041.560059 -30.531288 -11.204481 -14.139623 -25.088869 52.240215 3041.734131
106 3041.560059 -30.531288 -11.204481 -13.503262 -25.112482 52.966999 3041.734131
107 3041.560059 -30.531288 -11.204481 -12.867121 -25.143389 53.693604 3041.734131
[planeAlignerRight]
105 -0.635147 -812.270569 -0.364304 0.000000 -89.960434 -90.005180 812.270874
106 -0.635147 -812.270569 -0.364304 0.000000 -89.960434 -90.005180 812.270874
107 -0.635147 -812.270569 -0.364304 0.000000 -89.960434 -90.005180 812.270874
[R_Toe1_01]
105 -188.383347 -224.864899 21.052242 58.083656 23.225903 -170.299164 294.101532
106 -188.383347 -224.864899 21.052242 58.737339 22.169111 -170.569366 294.101532
107 -188.383347 -224.864899 21.052242 59.743221 21.043552 -170.477386 294.101532
[R_Toe2_01]
105 200.637817 -220.002121 -148.787384 -59.906273 40.256973 -33.658569 332.857574
106 200.637817 -220.002121 -148.787384 -61.396427 40.051662 -34.841709 332.857574
107 200.637817 -220.002121 -148.787384 -62.876053 39.822990 -36.013779 332.857574
[R_Toe3_01]
105 188.606735 -220.092957 191.126343 -55.632610 9.815608 -74.672905 347.192566
106 188.606735 -220.092957 191.126343 -56.306324 8.984604 -74.793793 347.192566
107 188.606735 -220.092957 191.126343 -57.072056 7.955085 -74.757454 347.192566
[planeLockWeightRight]
105 -0.000477 0.000000 0.000000 -0.011823 -0.004379 -0.000027 0.000477
106 -0.000477 0.000000 0.000000 -0.011823 -0.004379 -0.000027 0.000477
107 -0.000477 0.000000 0.000000 -0.011823 -0.004379 -0.000027 0.000477
[R_Toe1_02]
105 413.762085 0.000477 -0.000119 0.000006 -25.434675 -0.000005 413.762085
106 413.762085 0.000477 -0.000119 0.000006 -25.434675 -0.000005 413.762085
107 413.762085 0.000477 -0.000119 0.000006 -25.434675 -0.000005 413.762085
[R_Toe1_03]
105 464.317810 0.000000 0.001088 0.004965 62.652622 0.004965 464.317810
106 464.317810 0.000000 0.001088 0.005328 64.549629 0.005328 464.317810
107 464.317810 0.000000 0.001088 0.005442 65.088730 0.005442 464.317810
[R_Toe2_02]
105 342.234741 -0.000954 0.000238 0.001206 -63.187904 0.001206 342.234741
106 342.234741 -0.000954 0.000238 0.001204 -64.206772 0.001204 342.234741
107 342.234741 -0.000954 0.000238 0.001203 -64.431793 0.001203 342.234741
[R_Toe2_03]
105 420.210846 0.000715 -0.000268 -0.004562 66.088844 -0.000987 420.210846
106 420.210846 0.000715 -0.000268 -0.004779 67.891678 -0.001216 420.210846
107 420.210846 0.000715 -0.000268 -0.004836 68.313652 -0.001275 420.210846
[R_Toe3_02]
105 329.270355 -0.000477 -0.000954 0.001189 -71.790344 0.001189 329.270355
106 329.270355 -0.000477 -0.000954 0.001188 -72.444908 0.001188 329.270355
107 329.270355 -0.000477 -0.000954 0.001187 -72.601440 0.001187 329.270355
[R_Toe3_03]
105 439.137939 0.000238 0.001431 0.010477 77.137070 0.010477 439.137939
106 439.137939 0.000238 0.001431 0.011718 78.503502 0.011718 439.137939
107 439.137939 0.000238 0.001431 0.012107 78.874153 0.012107 439.137939
[Rear_Leg02]
105 1162.777710 -0.029802 0.005960 -3.699803 6.443786 -102.584732 1162.777710
106 1162.777710 -0.029802 0.005960 -3.575501 6.036159 -105.063354 1162.777710
107 1162.777710 -0.029802 0.005960 -3.415072 5.576319 -107.867264 1162.777710
[Rear_Leg03]
105 607.192505 -0.013351 -0.073195 0.010361 -0.005368 71.132240 607.192505
106 607.192505 -0.013351 -0.073195 0.010351 -0.005386 71.331108 607.192505
107 607.192505 -0.013351 -0.073195 0.010340 -0.005408 71.572304 607.192505
[Rear_Leg04]
105 995.874512 -0.020504 -0.011921 -0.041091 -0.016757 72.990158 995.874573
106 995.874512 -0.020504 -0.011921 -0.041179 -0.016544 73.586433 995.874573
107 995.874512 -0.020504 -0.011921 -0.041265 -0.016329 74.182739 995.874573
[Rear_Foot]
105 3096.176270 -0.067472 -0.041425 97.390694 83.632217 -76.065895 3096.176270
106 3096.176270 -0.067472 -0.041425 98.659409 83.966263 -74.392792 3096.176270
107 3096.176270 -0.067472 -0.041425 100.852638 84.429047 -71.599571 3096.176270
[planeAlignerCenter]
105 0.350077 0.966311 -838.790894 0.000009 0.000003 -179.999985 838.791565
106 0.350077 0.966311 -838.790894 0.000009 0.000003 -179.999985 838.791565
107 0.350077 0.966311 -838.790894 0.000009 0.000003 -179.999985 838.791565
[Rear_Toe1_01]
105 0.653352 83.966492 -371.173737 5.162598 31.009995 102.684570 380.553192
106 0.653352 83.966492 -371.173737 5.051918 31.326609 102.261345 380.553192
107 0.653352 83.966492 -371.173737 4.877364 31.872705 101.651505 380.553192
[Rear_Toe2_01]
105 178.200760 -294.826019 -362.060547 -8.701387 23.384962 -72.687843 499.765686
106 178.200760 -294.826019 -362.060547 -8.693930 23.945360 -72.379539 499.765686
107 178.200760 -294.826019 -362.060547 -8.683117 24.505713 -72.069763 499.765686
[Rear_Toe3_01]
105 -153.359680 -308.780914 -362.060852 3.530327 23.612295 -119.600777 499.952881
106 -153.359680 -308.780914 -362.060852 3.438409 24.269939 -119.421707 499.952881
107 -153.359680 -308.780914 -362.060852 3.358774 24.800175 -119.082352 499.952881
[planeLockWeightCenter]
105 -0.000062 0.000238 0.000000 -0.011814 -0.004373 -0.000015 0.000246
106 -0.000062 0.000238 0.000000 -0.011814 -0.004373 -0.000015 0.000246
107 -0.000062 0.000238 0.000000 -0.011814 -0.004373 -0.000015 0.000246
[Rear_Toe1_02]
105 379.707825 0.194073 0.000477 -0.000342 -33.033966 0.006990 379.707855
106 379.707825 0.194073 0.000477 -0.000340 -33.011047 0.006989 379.707855
107 379.707825 0.194073 0.000477 -0.000338 -32.988125 0.006988 379.707855
[Rear_Toe1_03]
105 500.129700 0.165701 0.000119 -0.004172 61.924450 -0.000567 500.129761
106 500.129700 0.165701 0.000119 -0.004176 61.982101 -0.000572 500.129761
107 500.129700 0.165701 0.000119 -0.004159 61.759426 -0.000553 500.129761
[Rear_Toe2_02]
105 340.494507 0.000238 -0.000954 0.001176 -83.468018 0.001176 340.494507
106 340.494507 0.000238 -0.000954 0.001175 -83.633850 0.001175 340.494507
107 340.494507 0.000238 -0.000954 0.001176 -83.117180 0.001176 340.494507
[Rear_Toe2_03]
105 433.103577 0.000000 0.000238 179.973602 84.905411 179.973602 433.103546
106 433.103577 0.000000 0.000238 179.975433 84.523964 179.975433 433.103546
107 433.103577 0.000000 0.000238 179.969360 85.609299 179.969360 433.103546
[Rear_Toe3_02]
105 340.494141 -0.000358 -0.000477 0.006828 -62.741383 -0.008011 340.494171
106 340.494141 -0.000358 -0.000477 0.007238 -64.189224 -0.008418 340.494171
107 340.494141 -0.000358 -0.000477 0.007341 -64.525032 -0.008519 340.494171
[Rear_Toe3_03]
105 433.103577 0.001431 -0.000238 -0.000386 59.671032 -0.004008 433.103546
106 433.103577 0.001431 -0.000238 -0.000542 61.630547 -0.004149 433.103546
107 433.103577 0.001431 -0.000238 -0.000584 62.113132 -0.004187 433.103546
[Back_Bone]
105 1312.175781 -701.934692 0.000954 0.137480 0.008706 -85.967941 1488.125488
106 1312.175781 -701.934692 0.000954 0.192184 0.012619 -86.111404 1488.125488
107 1312.175781 -701.934692 0.000954 0.246878 0.016668 -86.254883 1488.125488
[Head]
105 1406.159424 809.709290 0.001431 0.001944 0.001315 21.830206 1622.625488
106 1406.159424 809.709290 0.001431 0.001948 0.001310 22.174221 1622.625488
107 1406.159424 809.709290 0.001431 0.001952 0.001304 22.518248 1622.625488
[Motor_Bone]
105 1158.364380 -417.834747 0.000477 -0.000105 0.000046 -105.985291 1231.419434
106 1158.364380 -417.834747 0.000477 -0.000105 0.000046 -105.985291 1231.419434
107 1158.364380 -417.834747 0.000477 -0.000105 0.000046 -105.985291 1231.419434
[Ping_Mechanism]
105 1243.028320 -445.322479 0.079805 0.000103 -0.000053 82.120995 1320.390625
106 1239.299561 -443.786530 0.013950 0.000103 -0.000053 82.120995 1316.362305
107 1235.570801 -442.250580 -0.051904 0.000103 -0.000053 82.120995 1312.334106
[BN_LookIK]
105 193.241119 1380.371704 -0.002861 0.000000 89.965736 -31.038179 1393.832153
106 193.241119 1380.371704 -0.002861 0.000000 89.965736 -31.038179 1393.832153
107 193.241119 1380.371704 -0.002861 0.000000 89.965736 -31.038179 1393.832153
[bottomMouth]
105 -435.092926 615.759399 -0.000954 -0.000022 0.000016 73.527184 753.966492
106 -435.092926 615.759399 -0.000954 -0.000022 0.000016 73.527184 753.966492
107 -435.092926 615.759399 -0.000954 -0.000022 0.000016 73.527184 753.966492
[L_Mouth01]
105 554.440979 7.658243 838.222046 150.204178 23.759130 109.605339 1005.027161
106 554.440979 7.658243 838.222046 150.204178 23.759130 109.605339 1005.027161
107 554.440979 7.658243 838.222046 150.204178 23.759130 109.605339 1005.027161
[L_mouthFront]
105 551.629089 934.514771 339.150421 0.000081 2.804060 79.119301 1136.941284
106 551.629089 934.514771 339.150421 0.000081 2.804060 79.119301 1136.941284
107 551.629089 934.514771 339.150421 0.000081 2.804060 79.119301 1136.941284
[mouthGun]
105 55.332661 1627.420898 0.000000 0.000023 0.000009 -11.038128 1628.361328
106 55.332661 1627.420898 0.000000 0.000023 0.000009 -11.038128 1628.361328
107 55.332661 1627.420898 0.000000 0.000023 0.000009 -11.038128 1628.361328
[R_Mouth01]
105 554.442383 7.659197 -838.223938 29.795891 -23.759109 109.605331 1005.029541
106 554.442383 7.659197 -838.223938 29.795891 -23.759109 109.605331 1005.029541
107 554.442383 7.659197 -838.223938 29.795891 -23.759109 109.605331 1005.029541
[R_mouthFront]
105 551.629089 934.514282 -339.151367 0.000029 -2.803930 79.119133 1136.941162
106 551.629089 934.514282 -339.151367 0.000029 -2.803930 79.119133 1136.941162
107 551.629089 934.514282 -339.151367 0.000029 -2.803930 79.119133 1136.941162
[TopMouth]
105 461.269867 -56.106091 -0.008583 -0.000059 -0.000268 92.025169 464.669525
106 461.269867 -56.106091 -0.008583 -0.000059 -0.000268 92.025169 464.669525
107 461.269867 -56.106091 -0.008583 -0.000059 -0.000268 92.025169 464.669525
[weapon_bone]
105 -987.239868 1448.372803 0.001431 0.000000 89.965736 -31.038221 1752.833740
106 -987.239868 1448.372803 0.001431 0.000000 89.965736 -31.038221 1752.833740
107 -987.239868 1448.372803 0.001431 0.000000 89.965736 -31.038221 1752.833740
